<svg width="38" height="38" viewBox="0 0 38 38" fill="none" xmlns="http://www.w3.org/2000/svg">
<circle cx="19" cy="19" r="19" fill="#639599"/>
<path fill-rule="evenodd" clip-rule="evenodd" d="M14.3707 8.70428C15.5683 8.64964 15.9505 8.63672 18.9997 8.63672C22.0489 8.63672 22.4312 8.64964 23.6287 8.70428C24.8237 8.75883 25.6398 8.9486 26.354 9.22616C27.0923 9.51308 27.7184 9.89698 28.3426 10.5211C28.9667 11.1453 29.3506 11.7714 29.6376 12.5097C29.9151 13.2239 30.1049 14.04 30.1594 15.235C30.2141 16.4325 30.227 16.8148 30.227 19.864C30.227 22.9132 30.2141 23.2955 30.1594 24.493C30.1049 25.688 29.9151 26.5041 29.6376 27.2183C29.3506 27.9566 28.9667 28.5827 28.3426 29.2069C27.7184 29.831 27.0923 30.2149 26.354 30.5019C25.6398 30.7794 24.8237 30.9692 23.6287 31.0237C22.4312 31.0784 22.0489 31.0913 18.9997 31.0913C15.9505 31.0913 15.5683 31.0784 14.3707 31.0237C13.1757 30.9692 12.3596 30.7794 11.6454 30.5019C10.9071 30.2149 10.281 29.831 9.65683 29.2069C9.03267 28.5827 8.64878 27.9566 8.36186 27.2183C8.08429 26.5041 7.89453 25.688 7.83998 24.493C7.78534 23.2955 7.77246 22.9132 7.77246 19.864C7.77246 16.8148 7.78534 16.4325 7.83998 15.235C7.89453 14.04 8.08429 13.2239 8.36186 12.5097C8.64878 11.7714 9.03267 11.1453 9.65683 10.5211C10.281 9.89698 10.9071 9.51308 11.6454 9.22616C12.3596 8.9486 13.1757 8.75883 14.3707 8.70428ZM24.9929 15.2182C25.7369 15.2182 26.3401 14.6149 26.3401 13.8709C26.3401 13.1268 25.7369 12.5236 24.9929 12.5236C24.2488 12.5236 23.6456 13.1268 23.6456 13.8709C23.6456 14.6149 24.2488 15.2182 24.9929 15.2182ZM24.2392 19.8637C24.2392 22.7573 21.8934 25.1031 18.9998 25.1031C16.1061 25.1031 13.7604 22.7573 13.7604 19.8637C13.7604 16.97 16.1061 14.6243 18.9998 14.6243C21.8934 14.6243 24.2392 16.97 24.2392 19.8637ZM22.4543 19.864C22.4543 21.7719 20.9076 23.3185 18.9997 23.3185C17.0918 23.3185 15.5452 21.7719 15.5452 19.864C15.5452 17.9561 17.0918 16.4094 18.9997 16.4094C20.9076 16.4094 22.4543 17.9561 22.4543 19.864Z" fill="#1B4B66"/>
</svg>
