<svg width="46" height="35" viewBox="0 0 46 35" fill="none" xmlns="http://www.w3.org/2000/svg">
<path d="M1.5 29.2857C1.5 31.8893 3.63908 34 6.27778 34H39.7222C42.3609 34 44.5 31.8893 44.5 29.2857V5.71429C44.5 3.11066 42.3609 1 39.7222 1H6.27778C3.63908 1 1.5 3.11066 1.5 5.71429V29.2857Z"/>
<path d="M8.66667 13.1224C8.66667 14.2383 9.58342 15.1429 10.7143 15.1429H13.7857C14.9166 15.1429 15.8333 14.2383 15.8333 13.1224V10.0918C15.8333 8.976 14.9166 8.07143 13.7857 8.07143H10.7143C9.58342 8.07143 8.66667 8.976 8.66667 10.0918V13.1224Z"/>
<path d="M3.88889 24.5714H42.1111M6.27778 34C3.63908 34 1.5 31.8893 1.5 29.2857V5.71429C1.5 3.11066 3.63908 1 6.27778 1H39.7222C42.3609 1 44.5 3.11066 44.5 5.71429V29.2857C44.5 31.8893 42.3609 34 39.7222 34H6.27778ZM10.7143 15.1429C9.58342 15.1429 8.66667 14.2383 8.66667 13.1224V10.0918C8.66667 8.976 9.58342 8.07143 10.7143 8.07143H13.7857C14.9166 8.07143 15.8333 8.976 15.8333 10.0918V13.1224C15.8333 14.2383 14.9166 15.1429 13.7857 15.1429H10.7143Z" stroke="#1B4B66" stroke-width="1.5" stroke-linecap="round"/>
</svg>
