<svg width="24" height="24" viewBox="0 0 24 24" fill="none" xmlns="http://www.w3.org/2000/svg">
<g clip-path="url(#clip0_6085_5947)">
<path d="M8.68934 20.25H4.5C4.30109 20.25 4.11032 20.171 3.96967 20.0303C3.82902 19.8897 3.75 19.6989 3.75 19.5V15.3107C3.75 15.2122 3.7694 15.1147 3.80709 15.0237C3.84478 14.9327 3.90003 14.85 3.96967 14.7803L15.2197 3.53034C15.3603 3.38969 15.5511 3.31067 15.75 3.31067C15.9489 3.31067 16.1397 3.38969 16.2803 3.53034L20.4697 7.71968C20.6103 7.86033 20.6893 8.0511 20.6893 8.25001C20.6893 8.44892 20.6103 8.63969 20.4697 8.78034L9.21967 20.0303C9.15003 20.1 9.06735 20.1552 8.97635 20.1929C8.88536 20.2306 8.78783 20.25 8.68934 20.25Z" stroke="white" stroke-width="2" stroke-linecap="round" stroke-linejoin="round"/>
<path d="M12.75 6L18 11.25" stroke="white" stroke-width="2" stroke-linecap="round" stroke-linejoin="round"/>
<path d="M10.1544 19.1544L5 14" stroke="white" stroke-width="2" stroke-linecap="round" stroke-linejoin="round"/>
</g>
<defs>
<clipPath id="clip0_6085_5947">
<rect width="24" height="24" fill="white"/>
</clipPath>
</defs>
</svg>
