<svg width="33" height="35" viewBox="0 0 33 35" fill="none" xmlns="http://www.w3.org/2000/svg">
<path d="M4.5 11.5L1 30.5L4 33.5L30 33L31 29.5L28.5 12L26.5 10H6.5L4.5 11.5Z" fill="url(#paint0_linear_5104_69)"/>
<path fill-rule="evenodd" clip-rule="evenodd" d="M6.19952 11.0352C5.73731 11.0352 5.34104 11.3653 5.25754 11.8199L2.06671 29.1922C1.74249 30.9574 3.09795 32.5845 4.89267 32.5845H27.3924C29.164 32.5845 30.5136 30.9968 30.2281 29.2483L27.3857 11.8386C27.3101 11.3754 26.9099 11.0352 26.4405 11.0352H6.19952ZM3.37356 11.4739C3.62406 10.1101 4.81287 9.11971 6.19952 9.11971H26.4405C27.8486 9.11971 29.0493 10.1402 29.2762 11.53L32.1186 28.9396C32.5943 31.8538 30.3451 34.5 27.3924 34.5H4.89267C1.90147 34.5 -0.357633 31.7882 0.182732 28.8462L3.37356 11.4739Z" fill="#1B4B66"/>
<path fill-rule="evenodd" clip-rule="evenodd" d="M16.5755 2.41549C13.0298 2.41549 9.94311 5.01783 9.12513 8.64085H24.0259C23.2079 5.01783 20.1212 2.41549 16.5755 2.41549ZM25.9794 8.64085C25.1276 4.00302 21.2412 0.5 16.5755 0.5C11.9098 0.5 8.02339 4.00302 7.17158 8.64085C7.05769 9.26094 6.99805 9.90133 6.99805 10.5563H26.153C26.153 9.90133 26.0933 9.26094 25.9794 8.64085Z" fill="#1B4B66"/>
<path fill-rule="evenodd" clip-rule="evenodd" d="M7.48829 15.1994C7.56017 14.7322 7.96218 14.3873 8.4349 14.3873H21.8433C22.3723 14.3873 22.8011 14.8161 22.8011 15.3451C22.8011 15.874 22.3723 16.3028 21.8433 16.3028H9.25657L7.46601 27.9414C7.38558 28.4642 6.89657 28.8228 6.37377 28.7424C5.85097 28.6619 5.49236 28.1729 5.5728 27.6501L7.48829 15.1994Z" fill="#1B4B66"/>
<path fill-rule="evenodd" clip-rule="evenodd" d="M17.5332 28.2747C17.5332 27.7457 17.962 27.3169 18.4909 27.3169H25.1952C25.7241 27.3169 26.1529 27.7457 26.1529 28.2747C26.1529 28.8036 25.7241 29.2324 25.1952 29.2324H18.4909C17.962 29.2324 17.5332 28.8036 17.5332 28.2747Z" fill="#1B4B66"/>
<defs>
<linearGradient id="paint0_linear_5104_69" x1="15.1667" y1="7.38889" x2="17.8267" y2="33.3877" gradientUnits="userSpaceOnUse">
<stop stop-color="white" stop-opacity="0"/>
<stop offset="1" stop-color="#17494D" stop-opacity="0.57"/>
</linearGradient>
</defs>
</svg>
