<svg width="26" height="36" viewBox="0 0 26 36" fill="none" xmlns="http://www.w3.org/2000/svg">
<path fill-rule="evenodd" clip-rule="evenodd" d="M1.3623 24C1.3623 17.5728 6.57259 12.3625 12.9998 12.3625C19.427 12.3625 24.6373 17.5728 24.6373 24C24.6373 30.4272 19.427 35.6375 12.9998 35.6375C6.57259 35.6375 1.3623 30.4272 1.3623 24Z" fill="url(#paint0_linear_5104_676)"/>
<path fill-rule="evenodd" clip-rule="evenodd" d="M13.1 34.2C19.0647 34.2 23.9 29.3647 23.9 23.4C23.9 17.4353 19.0647 12.6 13.1 12.6C7.13532 12.6 2.3 17.4353 2.3 23.4C2.3 29.3647 7.13532 34.2 13.1 34.2ZM13.1 36C20.0588 36 25.7 30.3588 25.7 23.4C25.7 16.4412 20.0588 10.8 13.1 10.8C6.14121 10.8 0.5 16.4412 0.5 23.4C0.5 30.3588 6.14121 36 13.1 36Z" fill="#1B4B66"/>
<path fill-rule="evenodd" clip-rule="evenodd" d="M8.52445 0.243417C8.69126 0.0870307 8.91135 0 9.14 0H16.16C16.3887 0 16.6087 0.0870307 16.7755 0.243417L23.0155 6.09342C23.3776 6.43284 23.3966 7.00128 23.058 7.36409L17.5979 13.2141C17.3449 13.4852 16.9515 13.5733 16.607 13.4361C16.6069 13.4361 16.6068 13.4361 16.6067 13.436C16.6067 13.436 16.6067 13.436 16.6066 13.436C16.6065 13.4359 16.6064 13.4359 16.6063 13.4359C16.6062 13.4358 16.6062 13.4358 16.6061 13.4358C16.606 13.4357 16.6059 13.4357 16.6057 13.4356L16.6056 13.4356L16.5944 13.4313C16.5834 13.427 16.5653 13.4201 16.5405 13.411C16.4908 13.3927 16.4144 13.3653 16.3141 13.3319C16.1135 13.265 15.8189 13.1743 15.4542 13.0831C14.721 12.8998 13.7248 12.72 12.65 12.72C11.5819 12.72 10.8003 12.8977 10.3021 13.0638C10.0524 13.1471 9.87231 13.2279 9.76187 13.2831C9.70663 13.3107 9.66878 13.332 9.64833 13.3439C9.63919 13.3492 9.63352 13.3527 9.63134 13.354C9.28436 13.5802 8.8272 13.5404 8.52445 13.2566L2.28445 7.40658C2.10297 7.23644 2 6.99877 2 6.75C2 6.50123 2.10297 6.26356 2.28445 6.09342L8.52445 0.243417ZM16.6807 11.5588C16.4664 11.4915 16.1996 11.4141 15.8908 11.3369C15.064 11.1302 13.9152 10.92 12.65 10.92C11.3781 10.92 10.4047 11.1323 9.7329 11.3562C9.57095 11.4102 9.42686 11.4647 9.30065 11.5169L4.2159 6.75L9.4959 1.8H15.8041L21.1293 6.7924L16.6807 11.5588Z" fill="#1B4B66"/>
<path fill-rule="evenodd" clip-rule="evenodd" d="M22.3999 7.65H2.8999V5.85H22.3999V7.65Z" fill="#1B4B66"/>
<path fill-rule="evenodd" clip-rule="evenodd" d="M6.73406 27.6127C7.14126 27.3277 7.70244 27.4267 7.98748 27.8339C8.89444 29.1295 11.6645 31.3482 15.454 29.7692C15.9128 29.5781 16.4398 29.795 16.6309 30.2539C16.8221 30.7127 16.6052 31.2396 16.1463 31.4308C11.2959 33.4518 7.70591 30.5705 6.51287 28.8661C6.22782 28.4589 6.32685 27.8977 6.73406 27.6127Z" fill="#1B4B66"/>
<defs>
<linearGradient id="paint0_linear_5104_676" x1="12.3533" y1="9.77638" x2="15.6947" y2="35.3594" gradientUnits="userSpaceOnUse">
<stop stop-color="white" stop-opacity="0"/>
<stop offset="1" stop-color="#17494D" stop-opacity="0.57"/>
</linearGradient>
</defs>
</svg>
