<svg width="32" height="32" viewBox="0 0 32 32" fill="none" xmlns="http://www.w3.org/2000/svg">
<rect x="0.5" y="0.5" width="31" height="31" rx="3.5" stroke="#F1F1F1"/>
<path d="M27.06 14.2656C26.8656 13.7096 26.3356 13.3103 25.7131 13.3103H25.7001C25.2954 13.3103 24.9307 13.4787 24.6711 13.7491C24.411 13.4787 24.0463 13.3103 23.6421 13.3103H23.6291C23.2734 13.3103 22.9482 13.4406 22.6985 13.6562V13.5466C22.69 13.4374 22.6001 13.3516 22.4892 13.3516H21.5343C21.4176 13.3516 21.3232 13.446 21.3232 13.5632V18.7484C21.3232 18.8657 21.4176 18.96 21.5343 18.96H22.4892C22.5956 18.96 22.6832 18.8805 22.6971 18.7776L22.6967 15.0552C22.6967 15.0422 22.6971 15.0301 22.6985 15.0179C22.7138 14.8518 22.8355 14.7152 23.0277 14.6981H23.0632H23.1633H23.2038C23.2842 14.7053 23.352 14.7336 23.4054 14.7763C23.4885 14.8423 23.5348 14.9438 23.5348 15.0552L23.5384 18.7592C23.5384 18.8764 23.6331 18.9712 23.7495 18.9712H24.7043C24.8171 18.9712 24.9087 18.8814 24.9141 18.7695L24.9136 15.0503C24.9132 14.9281 24.9698 14.8176 25.069 14.752C25.118 14.7206 25.1768 14.6995 25.2446 14.6932H25.2801H25.3803H25.4207C25.6273 14.7112 25.7522 14.8679 25.7517 15.0503L25.7553 18.7493C25.7553 18.8666 25.8501 18.9609 25.9664 18.9609H26.9212C27.0376 18.9609 27.1323 18.8666 27.1323 18.7493V14.7709C27.1323 14.4996 27.1018 14.3842 27.06 14.2656Z" fill="#54C1F0"/>
<path d="M20.5952 13.3652H20.049V12.4804C20.049 12.4795 20.049 12.4786 20.049 12.4777C20.049 12.3712 19.9628 12.285 19.8564 12.285C19.8438 12.285 19.8317 12.2868 19.82 12.289C19.2146 12.4552 19.3358 13.2938 18.2305 13.3652H18.2058H18.1232C18.107 13.3652 18.0917 13.3674 18.0769 13.3706H18.076L18.0769 13.371C17.9826 13.3921 17.9116 13.4757 17.9116 13.5763V14.5311C17.9116 14.6474 18.0064 14.7422 18.1232 14.7422H18.6994L18.6985 18.7912C18.6985 18.9066 18.7919 19 18.9074 19H19.8514C19.9664 19 20.0598 18.9066 20.0598 18.7912L20.0603 14.7422H20.5952C20.7115 14.7422 20.8063 14.6474 20.8063 14.5311V13.5763C20.8063 13.4599 20.7115 13.3652 20.5952 13.3652Z" fill="#54C1F0"/>
<path d="M17.1607 13.3652H16.2059C16.0896 13.3652 15.9952 13.4599 15.9952 13.5762V15.5506C15.993 15.6728 15.8942 15.7707 15.7716 15.7707H15.3718C15.2479 15.7707 15.1477 15.671 15.1477 15.547L15.1441 13.5762C15.1441 13.4599 15.0494 13.3652 14.933 13.3652H13.9782C13.8614 13.3652 13.7671 13.4599 13.7671 13.5762V15.7402C13.7671 16.5621 14.3532 17.1482 15.1756 17.1482C15.1756 17.1482 15.7927 17.1482 15.8115 17.1518C15.9229 17.1644 16.0096 17.2578 16.0096 17.3728C16.0096 17.4864 15.9247 17.5794 15.8147 17.5933C15.8093 17.5942 15.8044 17.5955 15.7985 17.5964L14.4022 17.6014C14.2854 17.6014 14.1911 17.6962 14.1911 17.8125V18.7669C14.1911 18.8837 14.2854 18.978 14.4022 18.978H15.9634C16.7862 18.978 17.3718 18.3923 17.3718 17.5699V13.5762C17.3718 13.4599 17.2775 13.3652 17.1607 13.3652Z" fill="#233266"/>
<path d="M7.9182 15.1147V15.5603V15.704C7.9182 15.8275 7.81804 15.9281 7.69453 15.9281L7.08865 15.9286V14.7478H7.69453C7.81804 14.7478 7.9182 14.8475 7.9182 14.9715V15.1147ZM8.00218 13.3649H5.91506C5.80053 13.3649 5.70801 13.4579 5.70801 13.572V14.5075C5.70801 14.5093 5.70846 14.5111 5.70846 14.5129C5.70846 14.5174 5.70801 14.5219 5.70801 14.5259V17.5266V18.7604C5.70801 18.8753 5.79424 18.9692 5.90114 18.9719H5.9191H6.87396C6.99028 18.9719 7.08505 18.8776 7.08505 18.7608L7.08865 17.3096H8.00218C8.76661 17.3096 9.29928 16.7792 9.29928 16.0117V14.6647C9.29928 13.8971 8.76661 13.3649 8.00218 13.3649Z" fill="#233266"/>
<path d="M11.88 17.3565V17.5056C11.88 17.5177 11.8782 17.5294 11.8764 17.5406C11.8742 17.5514 11.871 17.5617 11.8674 17.5716C11.8378 17.6551 11.7543 17.7158 11.655 17.7158H11.2575C11.1336 17.7158 11.0325 17.6214 11.0325 17.5056V17.3255C11.0325 17.3232 11.0321 17.321 11.0321 17.3187L11.0325 16.8395V16.8386V16.7856V16.6895L11.033 16.6881C11.0334 16.5727 11.1336 16.4793 11.2575 16.4793H11.655C11.7794 16.4793 11.88 16.5732 11.88 16.6895V17.3565ZM11.7282 13.3704H10.4033C10.286 13.3704 10.1913 13.4593 10.1913 13.5685V13.9399C10.1913 13.9421 10.1917 13.9448 10.1917 13.9471C10.1917 13.9498 10.1913 13.9525 10.1913 13.9552V14.464C10.1913 14.5795 10.2919 14.6738 10.4158 14.6738H11.6775C11.7772 14.6895 11.8562 14.7623 11.8674 14.8759V14.999C11.8562 15.1072 11.7781 15.1862 11.6829 15.1952H11.0581C10.2272 15.1952 9.63525 15.7472 9.63525 16.5224V17.6044V17.6327C9.63525 18.4034 10.1441 18.9518 10.9692 18.9518H12.7006C13.0114 18.9518 13.2634 18.7164 13.2634 18.4267V14.8036C13.2634 13.9251 12.8106 13.3704 11.7282 13.3704Z" fill="#233266"/>
</svg>
