<svg width="32" height="32" viewBox="0 0 32 32" fill="none" xmlns="http://www.w3.org/2000/svg">
<rect x="0.5" y="0.5" width="31" height="31" rx="3.5" stroke="#F1F1F1"/>
<path d="M25.5061 18.2923C26.7721 12.9308 23.452 7.55826 18.0906 6.29228C12.7292 5.02629 7.35659 8.34631 6.09061 13.7077C4.82462 19.0692 8.14464 24.4418 13.5061 25.7077C18.8675 26.9737 24.2401 23.6537 25.5061 18.2923Z" fill="#5F259F"/>
<path d="M20.3261 13.3974C20.3261 13.0073 19.9917 12.673 19.6016 12.673H18.2642L15.1992 9.16218C14.9206 8.82782 14.4748 8.71637 14.029 8.82782L12.9701 9.16218C12.803 9.21791 12.7472 9.44081 12.8587 9.55227L16.2023 12.7287H11.1312C10.964 12.7287 10.8525 12.8401 10.8525 13.0073V13.5646C10.8525 13.9547 11.1869 14.289 11.577 14.289H12.3572V16.9639C12.3572 18.9701 13.416 20.1403 15.1992 20.1403C15.7565 20.1403 16.2023 20.0846 16.7596 19.8617V21.6449C16.7596 22.1465 17.1496 22.5366 17.6512 22.5366H18.4314C18.5985 22.5366 18.7657 22.3694 18.7657 22.2022V14.2333H20.0474C20.2146 14.2333 20.3261 14.1218 20.3261 13.9547V13.3974ZM16.7596 18.1899C16.4252 18.3571 15.9794 18.4128 15.645 18.4128C14.7534 18.4128 14.3076 17.967 14.3076 16.9639V14.289H16.7596V18.1899Z" fill="white"/>
</svg>
