<svg width="24" height="24" viewBox="0 0 24 24" fill="none" xmlns="http://www.w3.org/2000/svg">
<path fill-rule="evenodd" clip-rule="evenodd" d="M14.75 4.5C14.75 3.94772 15.1977 3.5 15.75 3.5H19.5C20.0523 3.5 20.5 3.94772 20.5 4.5V8.25C20.5 8.80228 20.0523 9.25 19.5 9.25C18.9477 9.25 18.5 8.80228 18.5 8.25V5.5H15.75C15.1977 5.5 14.75 5.05228 14.75 4.5Z" fill="#1B4B66"/>
<path fill-rule="evenodd" clip-rule="evenodd" d="M4.5 14.75C5.05228 14.75 5.5 15.1977 5.5 15.75V18.5H8.25C8.80228 18.5 9.25 18.9477 9.25 19.5C9.25 20.0523 8.80228 20.5 8.25 20.5H4.5C3.94772 20.5 3.5 20.0523 3.5 19.5V15.75C3.5 15.1977 3.94772 14.75 4.5 14.75Z" fill="#1B4B66"/>
<path fill-rule="evenodd" clip-rule="evenodd" d="M19.5 14.75C20.0523 14.75 20.5 15.1977 20.5 15.75V19.5C20.5 20.0523 20.0523 20.5 19.5 20.5H15.75C15.1977 20.5 14.75 20.0523 14.75 19.5C14.75 18.9477 15.1977 18.5 15.75 18.5H18.5V15.75C18.5 15.1977 18.9477 14.75 19.5 14.75Z" fill="#1B4B66"/>
<path fill-rule="evenodd" clip-rule="evenodd" d="M3.5 4.5C3.5 3.94772 3.94772 3.5 4.5 3.5H8.25C8.80228 3.5 9.25 3.94772 9.25 4.5C9.25 5.05228 8.80228 5.5 8.25 5.5H5.5V8.25C5.5 8.80228 5.05228 9.25 4.5 9.25C3.94772 9.25 3.5 8.80228 3.5 8.25V4.5Z" fill="#1B4B66"/>
</svg>
