<svg width="17" height="18" viewBox="0 0 17 18" fill="none" xmlns="http://www.w3.org/2000/svg">
<path d="M11.8333 4.2V3.56C11.8333 2.66392 11.8333 2.21587 11.6517 1.87362C11.4919 1.57256 11.2369 1.32779 10.9233 1.17439C10.5668 1 10.1001 1 9.16667 1H7.83333C6.89991 1 6.4332 1 6.07668 1.17439C5.76308 1.32779 5.50811 1.57256 5.34832 1.87362C5.16667 2.21587 5.16667 2.66392 5.16667 3.56V4.2M6.83333 8.6V12.6M10.1667 8.6V12.6M1 4.2H16M14.3333 4.2V13.16C14.3333 14.5041 14.3333 15.1762 14.0608 15.6896C13.8212 16.1412 13.4387 16.5083 12.9683 16.7384C12.4335 17 11.7335 17 10.3333 17H6.66667C5.26654 17 4.56647 17 4.03169 16.7384C3.56129 16.5083 3.17883 16.1412 2.93915 15.6896C2.66667 15.1762 2.66667 14.5041 2.66667 13.16V4.2" stroke="#B00020" stroke-width="1.6" stroke-linecap="round" stroke-linejoin="round"/>
</svg>
