<svg width="132" height="38" viewBox="0 0 132 38" fill="none" xmlns="http://www.w3.org/2000/svg">
<g id="UPI-Logo-vector 1" clip-path="url(#clip0_1615_9057)">
<g id="layer1">
<g id="g22">
<g id="g24">
<g id="g126">
<path id="path128" d="M101.215 36.1729H94.4121L103.873 2.00456H110.676L101.215 36.1729Z" fill="#66686C"/>
</g>
<g id="g130">
<path id="path132" d="M97.6833 3.08466C97.2116 2.43449 96.4842 2.1064 95.496 2.1064H58.0889L56.2361 8.7986H63.0426V8.79472H90.2661L88.2856 15.9462H61.0614L61.0639 15.9314H54.2602L48.6133 36.3174H55.4205L59.21 22.6345H89.8121C90.7677 22.6345 91.6673 22.3086 92.5133 21.6566C93.3575 21.004 93.9131 20.1993 94.1795 19.2384L97.9687 5.55269C98.2452 4.55962 98.1496 3.73553 97.6833 3.08466Z" fill="#66686C"/>
</g>
<g id="g134">
<path id="path136" d="M44.6488 34.0398C44.2731 35.3927 43.0412 36.3286 41.6368 36.3286H6.53854C5.58216 36.3286 4.87132 36.0026 4.40389 35.3514C3.93681 34.6995 3.83662 33.893 4.10367 32.9324L12.6677 2.10423H19.4767L11.8274 29.6385H39.0639L46.7132 2.10423H53.5208L44.6488 34.0398Z" fill="#66686C"/>
</g>
<g id="g138">
<path id="path140" d="M122.425 2.06855L131.038 19.197L112.933 36.3208L122.425 2.06855Z" fill="#27803B"/>
</g>
<g id="g142">
<path id="path144" d="M116.387 2.06855L124.994 19.197L106.881 36.3208L116.387 2.06855Z" fill="#E9661C"/>
</g>
</g>
</g>
</g>
</g>
<defs>
<clipPath id="clip0_1615_9057">
<rect width="131" height="38" fill="white" transform="translate(0.5)"/>
</clipPath>
</defs>
</svg>
