<svg width="18" height="16" viewBox="0 0 18 16" fill="none" xmlns="http://www.w3.org/2000/svg">
<path d="M9 14.875C9 14.875 1.1875 10.5 1.1875 5.18749C1.18766 4.24853 1.51301 3.33861 2.10824 2.61243C2.70347 1.88624 3.53183 1.38862 4.45249 1.20416C5.37315 1.01971 6.32928 1.15981 7.15832 1.60064C7.98736 2.04147 8.63814 2.75583 9.00001 3.62226L8.99999 3.62226C9.36186 2.75584 10.0126 2.04148 10.8417 1.60064C11.6707 1.15981 12.6268 1.01971 13.5475 1.20416C14.4682 1.38862 15.2965 1.88624 15.8918 2.61242C16.487 3.33861 16.8123 4.24853 16.8125 5.18749C16.8125 10.5 9 14.875 9 14.875Z" stroke="#13101E" stroke-width="2" stroke-linecap="round" stroke-linejoin="round"/>
</svg>
