<svg width="38" height="38" viewBox="0 0 38 38" fill="none" xmlns="http://www.w3.org/2000/svg">
<path fill-rule="evenodd" clip-rule="evenodd" d="M15.2415 4.5125C15.1859 4.5125 15.132 4.53204 15.0893 4.5677C15.0466 4.60336 15.0178 4.65289 15.0079 4.70764L14.0731 4.53817L15.0079 4.70764L13.9972 10.2822C13.9036 10.7984 13.4093 11.1411 12.893 11.0475C12.3767 10.9539 12.0341 10.4595 12.1277 9.94325L13.1383 4.36871C13.2277 3.87598 13.4871 3.43025 13.8715 3.10928C14.2559 2.78832 14.7408 2.6125 15.2415 2.6125H22.7584C23.2592 2.6125 23.744 2.78832 24.1284 3.10928C24.5128 3.43025 24.7723 3.87598 24.8616 4.36871L25.8722 9.94329C25.9658 10.4595 25.6232 10.9539 25.1069 11.0475C24.5907 11.1411 24.0963 10.7985 24.0027 10.2822L22.9921 4.70764L23.9268 4.53817L22.9921 4.70764C22.9822 4.65289 22.9533 4.60336 22.9106 4.5677C22.8679 4.53204 22.814 4.5125 22.7584 4.5125H15.2415Z" fill="#1B4B66"/>
<path fill-rule="evenodd" clip-rule="evenodd" d="M22.7585 34.1002C22.8141 34.1002 22.868 34.0807 22.9107 34.045C22.9534 34.0093 22.9822 33.9598 22.9921 33.9051L23.9269 34.0745L22.9921 33.9051L24.0028 28.3305C24.0964 27.8143 24.5907 27.4716 25.107 27.5652C25.6233 27.6588 25.9659 28.1532 25.8723 28.6695L24.8617 34.244C24.7723 34.7367 24.5129 35.1825 24.1285 35.5034C23.7441 35.8244 23.2592 36.0002 22.7585 36.0002H15.2416C14.7408 36.0002 14.256 35.8244 13.8716 35.5034C13.4872 35.1825 13.2277 34.7367 13.1384 34.244L12.1278 28.6694C12.0342 28.1532 12.3768 27.6588 12.8931 27.5652C13.4093 27.4716 13.9037 27.8142 13.9973 28.3305L15.0079 33.9051L14.0732 34.0745L15.0079 33.9051C15.0178 33.9598 15.0467 34.0093 15.0894 34.045C15.1321 34.0807 15.186 34.1002 15.2416 34.1002H22.7585Z" fill="#1B4B66"/>
<path fill-rule="evenodd" clip-rule="evenodd" d="M7.3623 19C7.3623 12.5728 12.5726 7.3625 18.9998 7.3625C25.427 7.3625 30.6373 12.5728 30.6373 19C30.6373 25.4272 25.427 30.6375 18.9998 30.6375C12.5726 30.6375 7.3623 25.4272 7.3623 19Z" fill="url(#paint0_linear_5104_553)"/>
<path fill-rule="evenodd" clip-rule="evenodd" d="M18.9998 9.2625C13.6219 9.2625 9.2623 13.6221 9.2623 19C9.2623 24.3779 13.6219 28.7375 18.9998 28.7375C24.3777 28.7375 28.7373 24.3779 28.7373 19C28.7373 13.6221 24.3777 9.2625 18.9998 9.2625ZM7.3623 19C7.3623 12.5728 12.5726 7.3625 18.9998 7.3625C25.427 7.3625 30.6373 12.5728 30.6373 19C30.6373 25.4272 25.427 30.6375 18.9998 30.6375C12.5726 30.6375 7.3623 25.4272 7.3623 19Z" fill="#1B4B66"/>
<path fill-rule="evenodd" clip-rule="evenodd" d="M18.9998 12.1125C19.5245 12.1125 19.9498 12.5378 19.9498 13.0625V18.05H24.9373C25.462 18.05 25.8873 18.4753 25.8873 19C25.8873 19.5247 25.462 19.95 24.9373 19.95H18.9998C18.4751 19.95 18.0498 19.5247 18.0498 19V13.0625C18.0498 12.5378 18.4751 12.1125 18.9998 12.1125Z" fill="#1B4B66"/>
<defs>
<linearGradient id="paint0_linear_5104_553" x1="18.3533" y1="4.77639" x2="21.6947" y2="30.3594" gradientUnits="userSpaceOnUse">
<stop stop-color="white" stop-opacity="0"/>
<stop offset="1" stop-color="#17494D" stop-opacity="0.57"/>
</linearGradient>
</defs>
</svg>
