<svg width="38" height="38" viewBox="0 0 38 38" fill="none" xmlns="http://www.w3.org/2000/svg">
<circle cx="19" cy="19" r="19" fill="#639599"/>
<path d="M31.091 12.6896C30.2013 13.0842 29.2451 13.3509 28.2415 13.4709C29.2659 12.8568 30.0525 11.8846 30.4229 10.7261C29.4644 11.2946 28.4026 11.7075 27.2725 11.93C26.3675 10.9658 25.0781 10.3633 23.6512 10.3633C20.9113 10.3633 18.6899 12.5846 18.6899 15.3244C18.6899 15.7132 18.7338 16.0919 18.8184 16.455C14.6951 16.2481 11.0395 14.2729 8.59259 11.2714C8.16555 12.0041 7.92089 12.8564 7.92089 13.7656C7.92089 15.4868 8.79683 17.0053 10.128 17.8949C9.31471 17.8692 8.54978 17.646 7.88082 17.2745C7.88047 17.2952 7.88047 17.3159 7.88047 17.3368C7.88047 19.7406 9.59059 21.7458 11.8602 22.2015C11.4438 22.3149 11.0056 22.3755 10.553 22.3755C10.2334 22.3755 9.92255 22.3444 9.61969 22.2865C10.251 24.2575 12.0832 25.6919 14.2541 25.7319C12.5562 27.0625 10.417 27.8557 8.09266 27.8557C7.69224 27.8557 7.29731 27.8322 6.90918 27.7864C9.10473 29.194 11.7126 30.0153 14.5143 30.0153C23.6396 30.0153 28.6297 22.4556 28.6297 15.8997C28.6297 15.6845 28.625 15.4706 28.6154 15.2578C29.5847 14.5584 30.4258 13.6846 31.091 12.6896Z" fill="#1B4B66"/>
</svg>
