<svg width="38" height="38" viewBox="0 0 38 38" fill="none" xmlns="http://www.w3.org/2000/svg">
<circle cx="19" cy="19" r="19" fill="#639599"/>
<path fill-rule="evenodd" clip-rule="evenodd" d="M29.9921 11.6857C30.3752 12.0686 30.6513 12.5453 30.7929 13.0681C31.6079 16.347 31.4196 21.5257 30.8087 24.9312C30.6672 25.454 30.3911 25.9306 30.0079 26.3136C29.6248 26.6966 29.1479 26.9726 28.6248 27.114C26.71 27.636 19.0031 27.636 19.0031 27.636C19.0031 27.636 11.2962 27.636 9.38139 27.114C8.85833 26.9726 8.38148 26.6966 7.99832 26.3136C7.61515 25.9306 7.33906 25.454 7.19752 24.9312C6.37777 21.6665 6.60249 16.4847 7.18169 13.0839C7.32323 12.5611 7.59933 12.0845 7.98249 11.7015C8.36565 11.3185 8.84251 11.0425 9.36557 10.9011C11.2804 10.3791 18.9873 10.3633 18.9873 10.3633C18.9873 10.3633 26.6942 10.3633 28.609 10.8853C29.1321 11.0267 29.6089 11.3027 29.9921 11.6857ZM22.7011 18.9996L16.5322 22.7009V15.2983L22.7011 18.9996Z" fill="#1B4B66"/>
</svg>
